<svg width="18" height="19" viewBox="0 0 18 19" fill="none" xmlns="http://www.w3.org/2000/svg">
<path d="M3 5.93652C3 5.5387 3.15804 5.15717 3.43934 4.87586C3.72064 4.59456 4.10218 4.43652 4.5 4.43652H13.5C13.8978 4.43652 14.2794 4.59456 14.5607 4.87586C14.842 5.15717 15 5.5387 15 5.93652V14.9365C15 15.3343 14.842 15.7159 14.5607 15.9972C14.2794 16.2785 13.8978 16.4365 13.5 16.4365H4.5C4.10218 16.4365 3.72064 16.2785 3.43934 15.9972C3.15804 15.7159 3 15.3343 3 14.9365V5.93652Z" stroke="white" stroke-width="1.5" stroke-linecap="round" stroke-linejoin="round"/>
<path d="M12 2.93652V5.93652" stroke="white" stroke-width="1.5" stroke-linecap="round" stroke-linejoin="round"/>
<path d="M6 2.93652V5.93652" stroke="white" stroke-width="1.5" stroke-linecap="round" stroke-linejoin="round"/>
<path d="M3 8.93652H15" stroke="white" stroke-width="1.5" stroke-linecap="round" stroke-linejoin="round"/>
<path d="M8.25 11.9365H9" stroke="white" stroke-width="1.5" stroke-linecap="round" stroke-linejoin="round"/>
<path d="M9 11.9365V14.1865" stroke="white" stroke-width="1.5" stroke-linecap="round" stroke-linejoin="round"/>
</svg>
