<svg width="29" height="24" viewBox="0 0 29 24" fill="none" xmlns="http://www.w3.org/2000/svg">
<path d="M4.48434 23.9999C2.05383 23.9999 0 21.9467 0 19.5156C0 17.0845 2.05383 15.0312 4.48434 15.0312C6.91485 15.0312 8.96867 17.0845 8.96867 19.5156C8.96867 21.9467 6.91485 23.9999 4.48434 23.9999ZM4.48434 16.1523C2.66145 16.1523 1.12108 17.6927 1.12108 19.5156C1.12108 21.3385 2.66145 22.8788 4.48434 22.8788C6.30722 22.8788 7.84759 21.3385 7.84759 19.5156C7.84759 17.6927 6.30722 16.1523 4.48434 16.1523Z" fill="#2DCBE0"/>
<path d="M4.48436 21.7029C3.37 21.7029 2.24219 20.9512 2.24219 19.5157C2.24219 18.0801 3.37 17.329 4.48436 17.329C5.59871 17.329 6.72652 18.0801 6.72652 19.5157C6.72652 20.9512 5.59871 21.7029 4.48436 21.7029ZM4.48436 18.4501C3.96698 18.4501 3.36327 18.7292 3.36327 19.5157C3.36327 20.3021 3.96698 20.5818 4.48436 20.5818C5.00174 20.5818 5.60544 20.3021 5.60544 19.5157C5.60544 18.7292 5.00174 18.4501 4.48436 18.4501Z" fill="#2DCBE0"/>
<path d="M17.9562 20.0061C17.6462 20.0061 17.3957 19.7556 17.3957 19.4456C17.3957 16.6765 15.5302 14.2303 12.8592 13.4988C12.561 13.417 12.385 13.1087 12.4668 12.8099C12.5487 12.5111 12.8553 12.3379 13.1557 12.4175C16.3122 13.2836 18.5162 16.1731 18.5162 19.4462C18.5168 19.7556 18.2662 20.0061 17.9562 20.0061Z" fill="#2DCBE0"/>
<path d="M12.4608 13.3682C12.3554 13.3682 12.2495 13.3385 12.1548 13.2768C11.8958 13.107 11.8229 12.76 11.9922 12.5005C12.5897 11.5873 13.2416 10.4949 13.5432 9.31715C13.7041 8.68935 13.6834 8.25605 13.4827 8.02903C13.1974 7.70784 12.5415 7.63048 12.0146 7.56882L11.8986 7.55537C11.731 7.53519 11.5365 7.52062 11.3257 7.50548C10.032 7.41131 7.86717 7.25324 7.83354 5.30816C7.79935 3.34402 9.42267 1.42192 11.0443 0.538505C12.3033 -0.147599 13.5421 -0.17955 14.4429 0.45106C14.6963 0.628191 14.7585 0.977409 14.5808 1.2319C14.4042 1.48582 14.055 1.54748 13.7999 1.36979C13.0337 0.834471 11.9922 1.2986 11.5808 1.52282C10.2882 2.22742 8.92884 3.78685 8.95462 5.28854C8.96808 6.06265 9.82739 6.27229 11.4076 6.38776C11.6368 6.40402 11.8498 6.42027 12.0326 6.44213L12.1458 6.45559C12.824 6.53574 13.7529 6.64449 14.3213 7.28575C15.0191 8.07219 14.726 9.2185 14.629 9.59518C14.2865 10.9321 13.578 12.1243 12.9305 13.1143C12.8229 13.2791 12.6441 13.3682 12.4608 13.3682Z" fill="#2DCBE0"/>
<path d="M15.8749 4.49252C15.6383 4.49252 15.4192 4.34173 15.3418 4.10519C15.0307 3.14834 14.6439 1.95719 13.8014 1.3703C13.5475 1.19373 13.4847 0.844512 13.6613 0.590026C13.8379 0.33554 14.1871 0.272199 14.4416 0.450451C15.5935 1.25203 16.0643 2.70103 16.4079 3.75877C16.5038 4.05249 16.3424 4.3692 16.0475 4.46505C15.9903 4.48411 15.9326 4.49252 15.8749 4.49252Z" fill="#2DCBE0"/>
<path d="M13.0084 13.5184C12.9597 13.5184 12.9098 13.5116 12.8599 13.4987L6.94226 11.8771C6.6435 11.7953 6.46805 11.487 6.54988 11.1882C6.63172 10.8905 6.93946 10.7157 7.23879 10.7958L13.1564 12.4175C13.4552 12.4993 13.6307 12.8076 13.5488 13.1064C13.4804 13.3547 13.2545 13.5184 13.0084 13.5184Z" fill="#2DCBE0"/>
<path d="M7.09076 11.8968C7.04144 11.8968 6.99155 11.8901 6.94166 11.8766C6.41363 11.7309 5.94334 11.4383 5.58235 11.0285C5.37719 10.7964 5.39961 10.4422 5.63111 10.237C5.8643 10.0324 6.21744 10.0548 6.4226 10.2864C6.63953 10.5319 6.92204 10.7084 7.23987 10.7959C7.53864 10.8777 7.71353 11.1866 7.63113 11.4848C7.56218 11.7337 7.33684 11.8968 7.09076 11.8968Z" fill="#2DCBE0"/>
<path d="M6.00221 11.218C5.84694 11.218 5.69279 11.1541 5.5818 11.0285C5.12945 10.5167 4.42204 10.3284 3.77742 10.5498C3.48538 10.6479 3.16531 10.4937 3.06553 10.2011C2.96519 9.90853 3.12158 9.58902 3.41475 9.48869C4.48875 9.12041 5.66925 9.43319 6.42206 10.2863C6.62721 10.5184 6.60479 10.8727 6.37329 11.0778C6.26679 11.172 6.13394 11.218 6.00221 11.218Z" fill="#2DCBE0"/>
<path d="M1.33422 12.3054C1.22604 12.3054 1.11617 12.274 1.01976 12.2084C0.763593 12.0346 0.696889 11.686 0.870657 11.4298C1.48165 10.5296 2.3858 9.83955 3.41552 9.48865C3.70756 9.38607 4.02707 9.54583 4.12684 9.83787C4.22662 10.131 4.07023 10.45 3.77707 10.5498C2.97605 10.8227 2.27313 11.3592 1.79835 12.0593C1.69017 12.2196 1.5136 12.3054 1.33422 12.3054Z" fill="#2DCBE0"/>
<path d="M0.568325 19.8419C0.557114 19.8419 0.545343 19.8413 0.534132 19.8408C0.225274 19.8223 -0.0101541 19.5566 0.00834376 19.2477L0.392315 12.8357C0.410813 12.5262 0.670344 12.2925 0.985369 12.3099C1.29423 12.3284 1.52965 12.5941 1.51116 12.9029L1.12719 19.315C1.10925 19.6126 0.86261 19.8419 0.568325 19.8419Z" fill="#2DCBE0"/>
<path d="M0.952603 13.4301C0.941392 13.4301 0.92962 13.4295 0.918409 13.4289C0.609551 13.4104 0.374123 13.1447 0.392621 12.8359C0.42289 12.3331 0.588251 11.8465 0.870764 11.43C1.04509 11.1739 1.39319 11.1066 1.64936 11.2809C1.90552 11.4547 1.97223 11.8034 1.79846 12.0595C1.62862 12.3095 1.5294 12.601 1.51146 12.9026C1.49409 13.2008 1.24689 13.4301 0.952603 13.4301Z" fill="#2DCBE0"/>
<path d="M20.1987 22.3702C19.8887 22.3702 19.6382 22.1196 19.6382 21.8097C19.6382 21.3158 19.859 20.8478 20.243 20.5255C20.6281 20.2031 21.1298 20.0681 21.6124 20.1533C21.9173 20.2071 22.1208 20.4974 22.067 20.8024C22.0132 21.1073 21.7217 21.3108 21.4179 21.257C21.2604 21.2301 21.0939 21.2755 20.9633 21.3848C20.8338 21.4935 20.7593 21.6488 20.7593 21.8102C20.7593 22.1196 20.5087 22.3702 20.1987 22.3702Z" fill="#2DCBE0"/>
<path d="M20.1987 24C19.8887 24 19.6382 23.7495 19.6382 23.4395V21.8094C19.6382 21.4995 19.8887 21.2489 20.1987 21.2489C20.5087 21.2489 20.7593 21.4995 20.7593 21.8094V23.4395C20.7593 23.7495 20.5087 24 20.1987 24Z" fill="#2DCBE0"/>
<path d="M27.4667 24H20.1987C19.8887 24 19.6382 23.7494 19.6382 23.4394C19.6382 23.1295 19.8887 22.8789 20.1987 22.8789H27.4667C27.7767 22.8789 28.0273 23.1295 28.0273 23.4394C28.0273 23.7494 27.7767 24 27.4667 24Z" fill="#2DCBE0"/>
<path d="M27.4668 24.0003C27.1568 24.0003 26.9062 23.7497 26.9062 23.4398V22.6987C26.9062 22.3887 27.1568 22.1382 27.4668 22.1382C27.7768 22.1382 28.0273 22.3887 28.0273 22.6987V23.4398C28.0273 23.7497 27.7768 24.0003 27.4668 24.0003Z" fill="#2DCBE0"/>
<path d="M26.5423 22.1553C26.5098 22.1553 26.4773 22.1525 26.4436 22.1463L21.4173 21.2562C21.1129 21.2023 20.9094 20.9114 20.9632 20.6065C21.0176 20.3021 21.3046 20.0981 21.6129 20.1525L26.6393 21.0426C26.9436 21.0964 27.1471 21.3873 27.0933 21.6923C27.0451 21.9641 26.8086 22.1553 26.5423 22.1553Z" fill="#2DCBE0"/>
<path d="M27.4664 23.259C27.1564 23.259 26.9058 23.0084 26.9058 22.6984C26.9058 22.426 26.7113 22.1939 26.4445 22.1474C26.1396 22.0936 25.9361 21.8032 25.9888 21.4983C26.0426 21.1934 26.3318 20.991 26.6379 21.0426C27.4428 21.1844 28.0269 21.8806 28.0269 22.6984C28.0269 23.0084 27.7763 23.259 27.4664 23.259Z" fill="#2DCBE0"/>
<path d="M12.5171 23.9995C12.3657 23.9995 12.22 23.9378 12.1191 23.8369C12.0126 23.7304 11.9565 23.5847 11.9565 23.4389C11.9565 23.2926 12.0126 23.1469 12.1191 23.0409C12.3265 22.8335 12.7021 22.8335 12.9095 23.0409C13.016 23.1469 13.0776 23.2926 13.0776 23.4389C13.0776 23.5847 13.016 23.7304 12.9095 23.8369C12.8086 23.9378 12.6628 23.9995 12.5171 23.9995Z" fill="#2DCBE0"/>
<path d="M16.8355 24H14.7559C14.4464 24 14.1953 23.7494 14.1953 23.4394C14.1953 23.1295 14.4464 22.8789 14.7559 22.8789H16.8355C17.1454 22.8789 17.396 23.1295 17.396 23.4394C17.396 23.7494 17.1454 24 16.8355 24Z" fill="#2DCBE0"/>
<path d="M10.272 24H4.48437C4.17495 24 3.92383 23.7494 3.92383 23.4394C3.92383 23.1295 4.17495 22.8789 4.48437 22.8789H10.272C10.5814 22.8789 10.8325 23.1295 10.8325 23.4394C10.8325 23.7494 10.5814 24 10.272 24Z" fill="#2DCBE0"/>
<path d="M16.8354 24C16.5255 24 16.2749 23.7494 16.2749 23.4394C16.2749 23.1295 16.5255 22.8789 16.8354 22.8789C17.1449 22.8789 17.396 22.6278 17.396 22.3184C17.396 22.0084 17.6465 21.7578 17.9565 21.7578C18.2665 21.7578 18.5171 22.0084 18.5171 22.3184C18.5171 23.2455 17.7626 24 16.8354 24Z" fill="#2DCBE0"/>
<path d="M17.9565 22.8789C17.6466 22.8789 17.396 22.6283 17.396 22.3183V19.4456C17.396 19.1356 17.6466 18.885 17.9565 18.885C18.2665 18.885 18.5171 19.1356 18.5171 19.4456V22.3183C18.5171 22.6283 18.2665 22.8789 17.9565 22.8789Z" fill="#2DCBE0"/>
<path d="M21.2339 21.2523C20.9962 21.2523 20.7765 21.1004 20.7002 20.8627L15.3415 4.10361C15.2467 3.80877 15.4093 3.49318 15.7041 3.39901C16.0001 3.30204 16.3146 3.46739 16.4087 3.76168L21.7675 20.5208C21.8622 20.8156 21.6997 21.1312 21.4048 21.2254C21.3477 21.2439 21.2899 21.2523 21.2339 21.2523Z" fill="#2DCBE0"/>
<path d="M17.9562 20.6367H8.36816C8.05874 20.6367 7.80762 20.3861 7.80762 20.0762C7.80762 19.7662 8.05874 19.5156 8.36816 19.5156H17.9562C18.2662 19.5156 18.5168 19.7662 18.5168 20.0762C18.5168 20.3861 18.2662 20.6367 17.9562 20.6367Z" fill="#2DCBE0"/>
</svg>
