<svg width="101" height="102" viewBox="0 0 101 102" fill="none" xmlns="http://www.w3.org/2000/svg">
<mask id="path-1-outside-1_80_850" maskUnits="userSpaceOnUse" x="-0.501953" y="0.000244141" width="102" height="102" fill="black">
<rect fill="white" x="-0.501953" y="0.000244141" width="102" height="102"/>
<path d="M100.498 48.438V48.0832C100.498 43.3903 96.6806 39.5729 91.9877 39.5729H91.6329C89.4732 39.5729 87.5624 40.3032 85.9524 41.7471C83.1018 44.3032 79.274 46.0791 75.0209 46.882C73.9586 44.8716 72.3653 43.05 70.2574 41.438C70.8881 41.3073 71.5105 41.1185 72.1536 40.8571L77.9607 38.5044C79.4524 37.9007 80.4918 36.6496 80.8134 35.0708L81.5437 31.4774C81.7138 30.6413 81.5105 29.8177 80.9711 29.1579C80.4317 28.4982 79.664 28.1351 78.8113 28.1351H66.2283C65.0354 28.1351 63.9877 28.7637 63.4275 29.8156L62.857 30.8861L59.2615 23.9339C56.691 18.9629 51.6391 15.9961 45.747 15.9961H38.9524L43.7698 14.4608C44.4732 14.2368 44.9462 13.5708 44.9462 12.8073C44.9462 12.0417 44.4732 11.3778 43.7698 11.1538L37.803 9.25336L36.1288 2.30937C35.942 1.53966 35.2781 1.00024 34.5105 1.00024C33.7429 1.00024 33.079 1.53759 32.8922 2.30937L31.218 9.25336L25.2532 11.1538C24.5499 11.3778 24.0769 12.0417 24.0769 12.8073C24.0769 13.5729 24.5499 14.2368 25.2532 14.4608L30.0707 15.9961H1.74286C1.05614 15.9961 0.498047 16.5542 0.498047 17.2409V75.2326C0.498047 75.9193 1.05614 76.4774 1.74286 76.4774H46.1806C45.303 80.3467 43.608 83.8177 41.2449 86.4525C39.803 88.0604 39.0707 89.9733 39.0707 92.133V92.4878C39.0707 97.1807 42.8881 100.998 47.581 100.998H47.9358C50.0956 100.998 52.0063 100.268 53.6163 98.8239C54.8383 97.7305 56.2491 96.7741 57.8217 95.967L58.3487 97.2803C58.6682 98.077 58.8051 98.7824 58.8051 99.6393V99.7534C58.8051 100.44 59.3632 100.998 60.0499 100.998H77.969C78.6557 100.998 79.2138 100.44 79.2138 99.7534V99.6704C79.2138 98.6849 79.3922 97.8841 79.8072 96.9919L80.552 95.3965C82.608 96.3031 84.4234 97.4525 85.9566 98.826C87.5644 100.268 89.4773 101 91.6371 101H91.9918C96.6848 101 100.502 97.1828 100.502 92.4899V92.1351C100.502 89.9753 99.7719 88.0646 98.3279 86.4546C94.7553 82.4712 92.7076 76.577 92.7076 70.2866C92.7076 63.9961 94.7553 58.1019 98.3279 54.1185C99.7678 52.5085 100.498 50.5978 100.498 48.438ZM72.3632 47.2492C71.5146 47.326 70.6536 47.3654 69.7844 47.3654C65.469 47.3654 61.3424 46.4007 57.8902 44.6434L66.2553 41.7658C69.0063 43.3467 71.0541 45.1849 72.3632 47.2492ZM65.6225 30.9857C65.7512 30.7451 65.9545 30.6227 66.2263 30.6227H78.8092C78.9151 30.6227 78.9731 30.6496 79.0416 30.7326C79.108 30.8135 79.1246 30.8778 79.1039 30.9816L78.3736 34.5749C78.218 35.3426 77.7512 35.9027 77.0271 36.1973L71.22 38.55C70.1557 38.9816 69.2138 39.1641 68.0644 39.1641H67.1371L64.2449 33.5708L65.6225 30.9857ZM32.6433 11.411C33.0582 11.2783 33.3736 10.9401 33.4752 10.5168L34.5105 6.22016L35.5458 10.5168C35.6474 10.9401 35.9628 11.2783 36.3777 11.411L40.7574 12.8073L36.3777 14.2036C35.9628 14.3363 35.6474 14.6745 35.5458 15.0978L34.5105 19.3944L33.4752 15.0978C33.3736 14.6745 33.0582 14.3363 32.6433 14.2036L28.2636 12.8073L32.6433 11.411ZM31.7304 18.4857L32.8922 23.3073C33.079 24.0791 33.7429 24.6164 34.5105 24.6164C35.2761 24.6164 35.942 24.0791 36.1288 23.3073L37.2906 18.4857H45.7449C50.6889 18.4857 54.9151 20.9505 57.0499 25.077L64.6122 39.6994L55.1288 42.9608C54.5997 42.577 54.0956 42.1724 53.6184 41.7451C52.0105 40.3031 50.0976 39.5708 47.9379 39.5708H47.5831C43.9877 39.5708 40.9088 41.8135 39.664 44.9712L20.6931 45.0459L21.1682 43.0749L28.8507 40.6268C29.6018 40.3882 30.108 39.6745 30.108 38.8509C30.108 38.0272 29.6018 37.3156 28.8507 37.0749L21.1682 34.6268L19.0188 25.7077C18.8196 24.882 18.1122 24.3073 17.2968 24.3073C16.4815 24.3073 15.774 24.8841 15.5748 25.7077L13.4234 34.633L5.74079 37.0812C4.98975 37.3197 4.48352 38.0334 4.48352 38.8571C4.48352 39.6807 4.98975 40.3924 5.74079 40.633L13.4234 43.0812L13.9047 45.0791L2.98767 45.1185V18.4857H31.7304ZM14.8466 40.9193L8.36942 38.855L14.8466 36.7907C15.2615 36.6579 15.5769 36.3197 15.6785 35.8965L17.2947 29.1911L18.9109 35.8965C19.0126 36.3197 19.3279 36.6579 19.7429 36.7907L26.22 38.855L19.7429 40.9193C19.3279 41.0521 19.0126 41.3903 18.9109 41.8135L17.2947 48.5189L15.6785 41.8135C15.5769 41.3903 15.2615 41.0521 14.8466 40.9193ZM2.98767 60.8944L41.4524 60.7513C41.5769 60.7492 41.6578 60.7824 41.747 60.8716C41.8362 60.9608 41.8694 61.0376 41.8694 61.1662V65.0044C41.8694 65.2326 41.6848 65.4193 41.4566 65.4193L2.98767 65.5625V60.8944ZM2.98767 73.9878V68.0521L41.4649 67.909C43.0603 67.9027 44.359 66.5998 44.359 65.0044V61.1662C44.359 60.3778 44.0644 59.6662 43.5043 59.1081C42.9483 58.5542 42.2387 58.2617 41.4545 58.2617C41.4503 58.2617 41.4462 58.2617 41.4441 58.2617L2.98767 58.4048V47.6102L14.5043 47.5646L15.5727 51.9982C15.7719 52.8239 16.4794 53.3986 17.2947 53.3986C18.1101 53.3986 18.8175 52.8218 19.0167 51.9982L20.0914 47.5417L39.0956 47.467C39.081 47.6704 39.0707 47.8778 39.0707 48.0853V48.4401C39.0707 50.5998 39.8009 52.5106 41.2449 54.1206C44.8175 58.106 46.8653 63.9982 46.8653 70.2886C46.8653 71.5438 46.7823 72.7803 46.6246 73.9919H2.98767V73.9878ZM77.5499 95.9401C77.1537 96.7886 76.9068 97.6247 76.7947 98.5085H61.2283C61.1371 97.7783 60.9524 97.0832 60.6599 96.355L56.525 86.0438C56.164 85.1434 55.9897 84.3426 55.942 83.3716L55.552 75.2305C55.5312 74.7865 55.579 74.4152 55.7159 73.9919L57.747 67.6828C57.7968 67.5293 57.8777 67.4442 58.0292 67.3903C58.1806 67.3343 58.2968 67.3488 58.4337 67.4339C60.0043 68.4276 60.7346 70.3114 60.2491 72.1185L59.4711 75.021C59.442 75.1268 59.4296 75.2347 59.4296 75.3426V79.4463C59.4296 80.2036 59.8881 80.8695 60.5956 81.1413C61.303 81.411 62.0873 81.2222 62.5935 80.6579L64.3404 78.7098C65.6765 77.2202 66.3528 75.4504 66.3528 73.4484V59.2658C66.3528 58.5936 66.9005 58.0459 67.5727 58.0459H67.6848C68.357 58.0459 68.9047 58.5936 68.9047 59.2658V75.9878C68.9047 76.6745 69.4628 77.2326 70.1495 77.2326C70.8362 77.2326 71.3943 76.6745 71.3943 75.9878V56.9069C71.3943 56.2347 71.942 55.687 72.6142 55.687H72.7263C73.3985 55.687 73.9462 56.2347 73.9462 56.9069V75.9878C73.9462 76.6745 74.5043 77.2326 75.191 77.2326C75.8777 77.2326 76.4358 76.6745 76.4358 75.9878V59.2658C76.4358 58.5936 76.9835 58.0459 77.6557 58.0459H77.7678C78.44 58.0459 78.9877 58.5936 78.9877 59.2658V75.9878C78.9877 76.6745 79.5458 77.2326 80.2325 77.2326C80.9192 77.2326 81.4773 76.6745 81.4773 75.9878V67.8612C81.4773 67.189 82.025 66.6413 82.6972 66.6413H82.8092C83.4814 66.6413 84.0292 67.189 84.0292 67.8612V81.0666C84.0292 81.7575 83.9047 82.3197 83.6122 82.9442L77.5499 95.9401ZM98.0084 48.438C98.0084 49.9878 97.5063 51.3032 96.4711 52.4567C92.496 56.8924 90.2159 63.3903 90.2159 70.2866C90.2159 77.1828 92.496 83.6807 96.4711 88.1164C97.5063 89.27 98.0084 90.5853 98.0084 92.1351V92.4899C98.0084 95.8094 95.3072 98.5106 91.9877 98.5106H91.6329C90.0831 98.5106 88.7678 98.0085 87.6142 96.9733C85.8985 95.4359 83.8777 94.1517 81.6018 93.1413L85.8653 84.0002C86.3092 83.05 86.5146 82.1185 86.5146 81.0708V67.8654C86.5146 65.8197 84.8507 64.1558 82.8051 64.1558H82.6931C82.2657 64.1558 81.8549 64.2326 81.4732 64.3654V59.27C81.4732 57.2243 79.8093 55.5604 77.7636 55.5604H77.6516C77.1619 55.5604 76.6972 55.6579 76.2698 55.8301C75.8051 54.3114 74.3922 53.2036 72.7221 53.2036H72.6101C70.9399 53.2036 69.5271 54.3114 69.0624 55.8301C68.635 55.6579 68.1682 55.5604 67.6806 55.5604H67.5686C65.5229 55.5604 63.859 57.2243 63.859 59.27V73.4525C63.859 74.8405 63.4088 76.0189 62.4815 77.0521L61.9151 77.6849V75.5127L62.6495 72.7679C63.4171 69.9007 62.2574 66.9152 59.7615 65.3343C58.9731 64.8343 58.0561 64.7347 57.1785 65.0542C56.301 65.3716 55.6599 66.0355 55.3736 66.9256L53.3424 73.2347C53.1122 73.9504 53.025 74.604 53.0624 75.355L53.4524 83.4961C53.5126 84.743 53.747 85.8156 54.2117 86.9753L56.8902 93.6538C55.0458 94.5791 53.3881 95.6911 51.9545 96.9753C50.8009 98.0106 49.4856 98.5127 47.9358 98.5127H47.581C44.2615 98.5127 41.5603 95.8114 41.5603 92.4919V92.1372C41.5603 90.5874 42.0624 89.272 43.0976 88.1185C47.0727 83.6828 49.3528 77.1849 49.3528 70.2886C49.3528 63.3924 47.0727 56.8944 43.0976 52.4588C42.0624 51.3052 41.5603 49.9899 41.5603 48.4401V48.0853C41.5603 44.7658 44.2615 42.0646 47.581 42.0646H47.9358C49.4856 42.0646 50.8009 42.5666 51.9545 43.6019C56.3902 47.577 62.8881 49.8571 69.7844 49.8571C76.6806 49.8571 83.1785 47.577 87.6142 43.6019C88.7678 42.5666 90.0831 42.0646 91.6329 42.0646H91.9877C95.3072 42.0646 98.0084 44.7658 98.0084 48.0853V48.438Z"/>
</mask>
<path d="M100.498 48.438V48.0832C100.498 43.3903 96.6806 39.5729 91.9877 39.5729H91.6329C89.4732 39.5729 87.5624 40.3032 85.9524 41.7471C83.1018 44.3032 79.274 46.0791 75.0209 46.882C73.9586 44.8716 72.3653 43.05 70.2574 41.438C70.8881 41.3073 71.5105 41.1185 72.1536 40.8571L77.9607 38.5044C79.4524 37.9007 80.4918 36.6496 80.8134 35.0708L81.5437 31.4774C81.7138 30.6413 81.5105 29.8177 80.9711 29.1579C80.4317 28.4982 79.664 28.1351 78.8113 28.1351H66.2283C65.0354 28.1351 63.9877 28.7637 63.4275 29.8156L62.857 30.8861L59.2615 23.9339C56.691 18.9629 51.6391 15.9961 45.747 15.9961H38.9524L43.7698 14.4608C44.4732 14.2368 44.9462 13.5708 44.9462 12.8073C44.9462 12.0417 44.4732 11.3778 43.7698 11.1538L37.803 9.25336L36.1288 2.30937C35.942 1.53966 35.2781 1.00024 34.5105 1.00024C33.7429 1.00024 33.079 1.53759 32.8922 2.30937L31.218 9.25336L25.2532 11.1538C24.5499 11.3778 24.0769 12.0417 24.0769 12.8073C24.0769 13.5729 24.5499 14.2368 25.2532 14.4608L30.0707 15.9961H1.74286C1.05614 15.9961 0.498047 16.5542 0.498047 17.2409V75.2326C0.498047 75.9193 1.05614 76.4774 1.74286 76.4774H46.1806C45.303 80.3467 43.608 83.8177 41.2449 86.4525C39.803 88.0604 39.0707 89.9733 39.0707 92.133V92.4878C39.0707 97.1807 42.8881 100.998 47.581 100.998H47.9358C50.0956 100.998 52.0063 100.268 53.6163 98.8239C54.8383 97.7305 56.2491 96.7741 57.8217 95.967L58.3487 97.2803C58.6682 98.077 58.8051 98.7824 58.8051 99.6393V99.7534C58.8051 100.44 59.3632 100.998 60.0499 100.998H77.969C78.6557 100.998 79.2138 100.44 79.2138 99.7534V99.6704C79.2138 98.6849 79.3922 97.8841 79.8072 96.9919L80.552 95.3965C82.608 96.3031 84.4234 97.4525 85.9566 98.826C87.5644 100.268 89.4773 101 91.6371 101H91.9918C96.6848 101 100.502 97.1828 100.502 92.4899V92.1351C100.502 89.9753 99.7719 88.0646 98.3279 86.4546C94.7553 82.4712 92.7076 76.577 92.7076 70.2866C92.7076 63.9961 94.7553 58.1019 98.3279 54.1185C99.7678 52.5085 100.498 50.5978 100.498 48.438ZM72.3632 47.2492C71.5146 47.326 70.6536 47.3654 69.7844 47.3654C65.469 47.3654 61.3424 46.4007 57.8902 44.6434L66.2553 41.7658C69.0063 43.3467 71.0541 45.1849 72.3632 47.2492ZM65.6225 30.9857C65.7512 30.7451 65.9545 30.6227 66.2263 30.6227H78.8092C78.9151 30.6227 78.9731 30.6496 79.0416 30.7326C79.108 30.8135 79.1246 30.8778 79.1039 30.9816L78.3736 34.5749C78.218 35.3426 77.7512 35.9027 77.0271 36.1973L71.22 38.55C70.1557 38.9816 69.2138 39.1641 68.0644 39.1641H67.1371L64.2449 33.5708L65.6225 30.9857ZM32.6433 11.411C33.0582 11.2783 33.3736 10.9401 33.4752 10.5168L34.5105 6.22016L35.5458 10.5168C35.6474 10.9401 35.9628 11.2783 36.3777 11.411L40.7574 12.8073L36.3777 14.2036C35.9628 14.3363 35.6474 14.6745 35.5458 15.0978L34.5105 19.3944L33.4752 15.0978C33.3736 14.6745 33.0582 14.3363 32.6433 14.2036L28.2636 12.8073L32.6433 11.411ZM31.7304 18.4857L32.8922 23.3073C33.079 24.0791 33.7429 24.6164 34.5105 24.6164C35.2761 24.6164 35.942 24.0791 36.1288 23.3073L37.2906 18.4857H45.7449C50.6889 18.4857 54.9151 20.9505 57.0499 25.077L64.6122 39.6994L55.1288 42.9608C54.5997 42.577 54.0956 42.1724 53.6184 41.7451C52.0105 40.3031 50.0976 39.5708 47.9379 39.5708H47.5831C43.9877 39.5708 40.9088 41.8135 39.664 44.9712L20.6931 45.0459L21.1682 43.0749L28.8507 40.6268C29.6018 40.3882 30.108 39.6745 30.108 38.8509C30.108 38.0272 29.6018 37.3156 28.8507 37.0749L21.1682 34.6268L19.0188 25.7077C18.8196 24.882 18.1122 24.3073 17.2968 24.3073C16.4815 24.3073 15.774 24.8841 15.5748 25.7077L13.4234 34.633L5.74079 37.0812C4.98975 37.3197 4.48352 38.0334 4.48352 38.8571C4.48352 39.6807 4.98975 40.3924 5.74079 40.633L13.4234 43.0812L13.9047 45.0791L2.98767 45.1185V18.4857H31.7304ZM14.8466 40.9193L8.36942 38.855L14.8466 36.7907C15.2615 36.6579 15.5769 36.3197 15.6785 35.8965L17.2947 29.1911L18.9109 35.8965C19.0126 36.3197 19.3279 36.6579 19.7429 36.7907L26.22 38.855L19.7429 40.9193C19.3279 41.0521 19.0126 41.3903 18.9109 41.8135L17.2947 48.5189L15.6785 41.8135C15.5769 41.3903 15.2615 41.0521 14.8466 40.9193ZM2.98767 60.8944L41.4524 60.7513C41.5769 60.7492 41.6578 60.7824 41.747 60.8716C41.8362 60.9608 41.8694 61.0376 41.8694 61.1662V65.0044C41.8694 65.2326 41.6848 65.4193 41.4566 65.4193L2.98767 65.5625V60.8944ZM2.98767 73.9878V68.0521L41.4649 67.909C43.0603 67.9027 44.359 66.5998 44.359 65.0044V61.1662C44.359 60.3778 44.0644 59.6662 43.5043 59.1081C42.9483 58.5542 42.2387 58.2617 41.4545 58.2617C41.4503 58.2617 41.4462 58.2617 41.4441 58.2617L2.98767 58.4048V47.6102L14.5043 47.5646L15.5727 51.9982C15.7719 52.8239 16.4794 53.3986 17.2947 53.3986C18.1101 53.3986 18.8175 52.8218 19.0167 51.9982L20.0914 47.5417L39.0956 47.467C39.081 47.6704 39.0707 47.8778 39.0707 48.0853V48.4401C39.0707 50.5998 39.8009 52.5106 41.2449 54.1206C44.8175 58.106 46.8653 63.9982 46.8653 70.2886C46.8653 71.5438 46.7823 72.7803 46.6246 73.9919H2.98767V73.9878ZM77.5499 95.9401C77.1537 96.7886 76.9068 97.6247 76.7947 98.5085H61.2283C61.1371 97.7783 60.9524 97.0832 60.6599 96.355L56.525 86.0438C56.164 85.1434 55.9897 84.3426 55.942 83.3716L55.552 75.2305C55.5312 74.7865 55.579 74.4152 55.7159 73.9919L57.747 67.6828C57.7968 67.5293 57.8777 67.4442 58.0292 67.3903C58.1806 67.3343 58.2968 67.3488 58.4337 67.4339C60.0043 68.4276 60.7346 70.3114 60.2491 72.1185L59.4711 75.021C59.442 75.1268 59.4296 75.2347 59.4296 75.3426V79.4463C59.4296 80.2036 59.8881 80.8695 60.5956 81.1413C61.303 81.411 62.0873 81.2222 62.5935 80.6579L64.3404 78.7098C65.6765 77.2202 66.3528 75.4504 66.3528 73.4484V59.2658C66.3528 58.5936 66.9005 58.0459 67.5727 58.0459H67.6848C68.357 58.0459 68.9047 58.5936 68.9047 59.2658V75.9878C68.9047 76.6745 69.4628 77.2326 70.1495 77.2326C70.8362 77.2326 71.3943 76.6745 71.3943 75.9878V56.9069C71.3943 56.2347 71.942 55.687 72.6142 55.687H72.7263C73.3985 55.687 73.9462 56.2347 73.9462 56.9069V75.9878C73.9462 76.6745 74.5043 77.2326 75.191 77.2326C75.8777 77.2326 76.4358 76.6745 76.4358 75.9878V59.2658C76.4358 58.5936 76.9835 58.0459 77.6557 58.0459H77.7678C78.44 58.0459 78.9877 58.5936 78.9877 59.2658V75.9878C78.9877 76.6745 79.5458 77.2326 80.2325 77.2326C80.9192 77.2326 81.4773 76.6745 81.4773 75.9878V67.8612C81.4773 67.189 82.025 66.6413 82.6972 66.6413H82.8092C83.4814 66.6413 84.0292 67.189 84.0292 67.8612V81.0666C84.0292 81.7575 83.9047 82.3197 83.6122 82.9442L77.5499 95.9401ZM98.0084 48.438C98.0084 49.9878 97.5063 51.3032 96.4711 52.4567C92.496 56.8924 90.2159 63.3903 90.2159 70.2866C90.2159 77.1828 92.496 83.6807 96.4711 88.1164C97.5063 89.27 98.0084 90.5853 98.0084 92.1351V92.4899C98.0084 95.8094 95.3072 98.5106 91.9877 98.5106H91.6329C90.0831 98.5106 88.7678 98.0085 87.6142 96.9733C85.8985 95.4359 83.8777 94.1517 81.6018 93.1413L85.8653 84.0002C86.3092 83.05 86.5146 82.1185 86.5146 81.0708V67.8654C86.5146 65.8197 84.8507 64.1558 82.8051 64.1558H82.6931C82.2657 64.1558 81.8549 64.2326 81.4732 64.3654V59.27C81.4732 57.2243 79.8093 55.5604 77.7636 55.5604H77.6516C77.1619 55.5604 76.6972 55.6579 76.2698 55.8301C75.8051 54.3114 74.3922 53.2036 72.7221 53.2036H72.6101C70.9399 53.2036 69.5271 54.3114 69.0624 55.8301C68.635 55.6579 68.1682 55.5604 67.6806 55.5604H67.5686C65.5229 55.5604 63.859 57.2243 63.859 59.27V73.4525C63.859 74.8405 63.4088 76.0189 62.4815 77.0521L61.9151 77.6849V75.5127L62.6495 72.7679C63.4171 69.9007 62.2574 66.9152 59.7615 65.3343C58.9731 64.8343 58.0561 64.7347 57.1785 65.0542C56.301 65.3716 55.6599 66.0355 55.3736 66.9256L53.3424 73.2347C53.1122 73.9504 53.025 74.604 53.0624 75.355L53.4524 83.4961C53.5126 84.743 53.747 85.8156 54.2117 86.9753L56.8902 93.6538C55.0458 94.5791 53.3881 95.6911 51.9545 96.9753C50.8009 98.0106 49.4856 98.5127 47.9358 98.5127H47.581C44.2615 98.5127 41.5603 95.8114 41.5603 92.4919V92.1372C41.5603 90.5874 42.0624 89.272 43.0976 88.1185C47.0727 83.6828 49.3528 77.1849 49.3528 70.2886C49.3528 63.3924 47.0727 56.8944 43.0976 52.4588C42.0624 51.3052 41.5603 49.9899 41.5603 48.4401V48.0853C41.5603 44.7658 44.2615 42.0646 47.581 42.0646H47.9358C49.4856 42.0646 50.8009 42.5666 51.9545 43.6019C56.3902 47.577 62.8881 49.8571 69.7844 49.8571C76.6806 49.8571 83.1785 47.577 87.6142 43.6019C88.7678 42.5666 90.0831 42.0646 91.6329 42.0646H91.9877C95.3072 42.0646 98.0084 44.7658 98.0084 48.0853V48.438Z" fill="white"/>
<path d="M100.498 48.438V48.0832C100.498 43.3903 96.6806 39.5729 91.9877 39.5729H91.6329C89.4732 39.5729 87.5624 40.3032 85.9524 41.7471C83.1018 44.3032 79.274 46.0791 75.0209 46.882C73.9586 44.8716 72.3653 43.05 70.2574 41.438C70.8881 41.3073 71.5105 41.1185 72.1536 40.8571L77.9607 38.5044C79.4524 37.9007 80.4918 36.6496 80.8134 35.0708L81.5437 31.4774C81.7138 30.6413 81.5105 29.8177 80.9711 29.1579C80.4317 28.4982 79.664 28.1351 78.8113 28.1351H66.2283C65.0354 28.1351 63.9877 28.7637 63.4275 29.8156L62.857 30.8861L59.2615 23.9339C56.691 18.9629 51.6391 15.9961 45.747 15.9961H38.9524L43.7698 14.4608C44.4732 14.2368 44.9462 13.5708 44.9462 12.8073C44.9462 12.0417 44.4732 11.3778 43.7698 11.1538L37.803 9.25336L36.1288 2.30937C35.942 1.53966 35.2781 1.00024 34.5105 1.00024C33.7429 1.00024 33.079 1.53759 32.8922 2.30937L31.218 9.25336L25.2532 11.1538C24.5499 11.3778 24.0769 12.0417 24.0769 12.8073C24.0769 13.5729 24.5499 14.2368 25.2532 14.4608L30.0707 15.9961H1.74286C1.05614 15.9961 0.498047 16.5542 0.498047 17.2409V75.2326C0.498047 75.9193 1.05614 76.4774 1.74286 76.4774H46.1806C45.303 80.3467 43.608 83.8177 41.2449 86.4525C39.803 88.0604 39.0707 89.9733 39.0707 92.133V92.4878C39.0707 97.1807 42.8881 100.998 47.581 100.998H47.9358C50.0956 100.998 52.0063 100.268 53.6163 98.8239C54.8383 97.7305 56.2491 96.7741 57.8217 95.967L58.3487 97.2803C58.6682 98.077 58.8051 98.7824 58.8051 99.6393V99.7534C58.8051 100.44 59.3632 100.998 60.0499 100.998H77.969C78.6557 100.998 79.2138 100.44 79.2138 99.7534V99.6704C79.2138 98.6849 79.3922 97.8841 79.8072 96.9919L80.552 95.3965C82.608 96.3031 84.4234 97.4525 85.9566 98.826C87.5644 100.268 89.4773 101 91.6371 101H91.9918C96.6848 101 100.502 97.1828 100.502 92.4899V92.1351C100.502 89.9753 99.7719 88.0646 98.3279 86.4546C94.7553 82.4712 92.7076 76.577 92.7076 70.2866C92.7076 63.9961 94.7553 58.1019 98.3279 54.1185C99.7678 52.5085 100.498 50.5978 100.498 48.438ZM72.3632 47.2492C71.5146 47.326 70.6536 47.3654 69.7844 47.3654C65.469 47.3654 61.3424 46.4007 57.8902 44.6434L66.2553 41.7658C69.0063 43.3467 71.0541 45.1849 72.3632 47.2492ZM65.6225 30.9857C65.7512 30.7451 65.9545 30.6227 66.2263 30.6227H78.8092C78.9151 30.6227 78.9731 30.6496 79.0416 30.7326C79.108 30.8135 79.1246 30.8778 79.1039 30.9816L78.3736 34.5749C78.218 35.3426 77.7512 35.9027 77.0271 36.1973L71.22 38.55C70.1557 38.9816 69.2138 39.1641 68.0644 39.1641H67.1371L64.2449 33.5708L65.6225 30.9857ZM32.6433 11.411C33.0582 11.2783 33.3736 10.9401 33.4752 10.5168L34.5105 6.22016L35.5458 10.5168C35.6474 10.9401 35.9628 11.2783 36.3777 11.411L40.7574 12.8073L36.3777 14.2036C35.9628 14.3363 35.6474 14.6745 35.5458 15.0978L34.5105 19.3944L33.4752 15.0978C33.3736 14.6745 33.0582 14.3363 32.6433 14.2036L28.2636 12.8073L32.6433 11.411ZM31.7304 18.4857L32.8922 23.3073C33.079 24.0791 33.7429 24.6164 34.5105 24.6164C35.2761 24.6164 35.942 24.0791 36.1288 23.3073L37.2906 18.4857H45.7449C50.6889 18.4857 54.9151 20.9505 57.0499 25.077L64.6122 39.6994L55.1288 42.9608C54.5997 42.577 54.0956 42.1724 53.6184 41.7451C52.0105 40.3031 50.0976 39.5708 47.9379 39.5708H47.5831C43.9877 39.5708 40.9088 41.8135 39.664 44.9712L20.6931 45.0459L21.1682 43.0749L28.8507 40.6268C29.6018 40.3882 30.108 39.6745 30.108 38.8509C30.108 38.0272 29.6018 37.3156 28.8507 37.0749L21.1682 34.6268L19.0188 25.7077C18.8196 24.882 18.1122 24.3073 17.2968 24.3073C16.4815 24.3073 15.774 24.8841 15.5748 25.7077L13.4234 34.633L5.74079 37.0812C4.98975 37.3197 4.48352 38.0334 4.48352 38.8571C4.48352 39.6807 4.98975 40.3924 5.74079 40.633L13.4234 43.0812L13.9047 45.0791L2.98767 45.1185V18.4857H31.7304ZM14.8466 40.9193L8.36942 38.855L14.8466 36.7907C15.2615 36.6579 15.5769 36.3197 15.6785 35.8965L17.2947 29.1911L18.9109 35.8965C19.0126 36.3197 19.3279 36.6579 19.7429 36.7907L26.22 38.855L19.7429 40.9193C19.3279 41.0521 19.0126 41.3903 18.9109 41.8135L17.2947 48.5189L15.6785 41.8135C15.5769 41.3903 15.2615 41.0521 14.8466 40.9193ZM2.98767 60.8944L41.4524 60.7513C41.5769 60.7492 41.6578 60.7824 41.747 60.8716C41.8362 60.9608 41.8694 61.0376 41.8694 61.1662V65.0044C41.8694 65.2326 41.6848 65.4193 41.4566 65.4193L2.98767 65.5625V60.8944ZM2.98767 73.9878V68.0521L41.4649 67.909C43.0603 67.9027 44.359 66.5998 44.359 65.0044V61.1662C44.359 60.3778 44.0644 59.6662 43.5043 59.1081C42.9483 58.5542 42.2387 58.2617 41.4545 58.2617C41.4503 58.2617 41.4462 58.2617 41.4441 58.2617L2.98767 58.4048V47.6102L14.5043 47.5646L15.5727 51.9982C15.7719 52.8239 16.4794 53.3986 17.2947 53.3986C18.1101 53.3986 18.8175 52.8218 19.0167 51.9982L20.0914 47.5417L39.0956 47.467C39.081 47.6704 39.0707 47.8778 39.0707 48.0853V48.4401C39.0707 50.5998 39.8009 52.5106 41.2449 54.1206C44.8175 58.106 46.8653 63.9982 46.8653 70.2886C46.8653 71.5438 46.7823 72.7803 46.6246 73.9919H2.98767V73.9878ZM77.5499 95.9401C77.1537 96.7886 76.9068 97.6247 76.7947 98.5085H61.2283C61.1371 97.7783 60.9524 97.0832 60.6599 96.355L56.525 86.0438C56.164 85.1434 55.9897 84.3426 55.942 83.3716L55.552 75.2305C55.5312 74.7865 55.579 74.4152 55.7159 73.9919L57.747 67.6828C57.7968 67.5293 57.8777 67.4442 58.0292 67.3903C58.1806 67.3343 58.2968 67.3488 58.4337 67.4339C60.0043 68.4276 60.7346 70.3114 60.2491 72.1185L59.4711 75.021C59.442 75.1268 59.4296 75.2347 59.4296 75.3426V79.4463C59.4296 80.2036 59.8881 80.8695 60.5956 81.1413C61.303 81.411 62.0873 81.2222 62.5935 80.6579L64.3404 78.7098C65.6765 77.2202 66.3528 75.4504 66.3528 73.4484V59.2658C66.3528 58.5936 66.9005 58.0459 67.5727 58.0459H67.6848C68.357 58.0459 68.9047 58.5936 68.9047 59.2658V75.9878C68.9047 76.6745 69.4628 77.2326 70.1495 77.2326C70.8362 77.2326 71.3943 76.6745 71.3943 75.9878V56.9069C71.3943 56.2347 71.942 55.687 72.6142 55.687H72.7263C73.3985 55.687 73.9462 56.2347 73.9462 56.9069V75.9878C73.9462 76.6745 74.5043 77.2326 75.191 77.2326C75.8777 77.2326 76.4358 76.6745 76.4358 75.9878V59.2658C76.4358 58.5936 76.9835 58.0459 77.6557 58.0459H77.7678C78.44 58.0459 78.9877 58.5936 78.9877 59.2658V75.9878C78.9877 76.6745 79.5458 77.2326 80.2325 77.2326C80.9192 77.2326 81.4773 76.6745 81.4773 75.9878V67.8612C81.4773 67.189 82.025 66.6413 82.6972 66.6413H82.8092C83.4814 66.6413 84.0292 67.189 84.0292 67.8612V81.0666C84.0292 81.7575 83.9047 82.3197 83.6122 82.9442L77.5499 95.9401ZM98.0084 48.438C98.0084 49.9878 97.5063 51.3032 96.4711 52.4567C92.496 56.8924 90.2159 63.3903 90.2159 70.2866C90.2159 77.1828 92.496 83.6807 96.4711 88.1164C97.5063 89.27 98.0084 90.5853 98.0084 92.1351V92.4899C98.0084 95.8094 95.3072 98.5106 91.9877 98.5106H91.6329C90.0831 98.5106 88.7678 98.0085 87.6142 96.9733C85.8985 95.4359 83.8777 94.1517 81.6018 93.1413L85.8653 84.0002C86.3092 83.05 86.5146 82.1185 86.5146 81.0708V67.8654C86.5146 65.8197 84.8507 64.1558 82.8051 64.1558H82.6931C82.2657 64.1558 81.8549 64.2326 81.4732 64.3654V59.27C81.4732 57.2243 79.8093 55.5604 77.7636 55.5604H77.6516C77.1619 55.5604 76.6972 55.6579 76.2698 55.8301C75.8051 54.3114 74.3922 53.2036 72.7221 53.2036H72.6101C70.9399 53.2036 69.5271 54.3114 69.0624 55.8301C68.635 55.6579 68.1682 55.5604 67.6806 55.5604H67.5686C65.5229 55.5604 63.859 57.2243 63.859 59.27V73.4525C63.859 74.8405 63.4088 76.0189 62.4815 77.0521L61.9151 77.6849V75.5127L62.6495 72.7679C63.4171 69.9007 62.2574 66.9152 59.7615 65.3343C58.9731 64.8343 58.0561 64.7347 57.1785 65.0542C56.301 65.3716 55.6599 66.0355 55.3736 66.9256L53.3424 73.2347C53.1122 73.9504 53.025 74.604 53.0624 75.355L53.4524 83.4961C53.5126 84.743 53.747 85.8156 54.2117 86.9753L56.8902 93.6538C55.0458 94.5791 53.3881 95.6911 51.9545 96.9753C50.8009 98.0106 49.4856 98.5127 47.9358 98.5127H47.581C44.2615 98.5127 41.5603 95.8114 41.5603 92.4919V92.1372C41.5603 90.5874 42.0624 89.272 43.0976 88.1185C47.0727 83.6828 49.3528 77.1849 49.3528 70.2886C49.3528 63.3924 47.0727 56.8944 43.0976 52.4588C42.0624 51.3052 41.5603 49.9899 41.5603 48.4401V48.0853C41.5603 44.7658 44.2615 42.0646 47.581 42.0646H47.9358C49.4856 42.0646 50.8009 42.5666 51.9545 43.6019C56.3902 47.577 62.8881 49.8571 69.7844 49.8571C76.6806 49.8571 83.1785 47.577 87.6142 43.6019C88.7678 42.5666 90.0831 42.0646 91.6329 42.0646H91.9877C95.3072 42.0646 98.0084 44.7658 98.0084 48.0853V48.438Z" stroke="white" mask="url(#path-1-outside-1_80_850)"/>
<path d="M18.9222 25.6686C18.4647 24.3044 16.5353 24.3044 16.0778 25.6686L13.2554 34.0852C13.2091 34.2232 13.105 34.3342 12.9703 34.3892L5.07837 37.6115C3.8344 38.1195 3.8344 39.881 5.07837 40.3889L12.9703 43.6113C13.105 43.6663 13.2091 43.7773 13.2554 43.9153L16.0778 52.3319C16.5353 53.696 18.4647 53.6961 18.9222 52.3319L21.7446 43.9153C21.7909 43.7773 21.895 43.6663 22.0297 43.6113L29.9216 40.3889C31.1656 39.881 31.1656 38.1195 29.9216 37.6115L22.0297 34.3892C21.895 34.3342 21.7909 34.2232 21.7446 34.0852L18.9222 25.6686Z" fill="#2DCBE0" stroke="#2DCBE0"/>
<path d="M35.9256 2.74806C35.4746 1.37025 33.5254 1.37025 33.0744 2.74806L31.0611 8.89865C31.0159 9.03672 30.9129 9.14831 30.7789 9.20437L25.0125 11.6164C23.7843 12.1302 23.7843 13.8703 25.0125 14.3841L30.7789 16.7961C30.9129 16.8522 31.0159 16.9638 31.0611 17.1018L33.0744 23.2524C33.5254 24.6302 35.4746 24.6302 35.9256 23.2524L37.9389 17.1018C37.9841 16.9638 38.0871 16.8522 38.2211 16.7961L43.9875 14.3841C45.2157 13.8703 45.2157 12.1302 43.9875 11.6164L38.2211 9.20437C38.0871 9.14831 37.9841 9.03672 37.9389 8.89865L35.9256 2.74806Z" fill="#2DCBE0" stroke="#2DCBE0"/>
</svg>
