<svg width="101" height="100" viewBox="0 0 101 100" fill="none" xmlns="http://www.w3.org/2000/svg">
<g clip-path="url(#clip0_80_861)">
<path d="M77.0625 57.0315H62.2188V48.6331C62.2188 46.9161 62.2187 44.0432 60.7258 41.492C58.8719 38.3249 55.4314 36.719 50.5 36.719C49.8784 36.719 49.2823 36.9659 48.8427 37.4055C48.4032 37.845 48.1562 38.4411 48.1562 39.0627V51.094L43.9604 57.9124L38.7812 61.2954V59.3752C38.7812 58.7536 38.5343 58.1575 38.0948 57.718C37.6552 57.2784 37.0591 57.0315 36.4375 57.0315H20.8125C20.1909 57.0315 19.5948 57.2784 19.1552 57.718C18.7157 58.1575 18.4688 58.7536 18.4688 59.3752V96.8752C18.4688 97.4968 18.7157 98.093 19.1552 98.5325C19.5948 98.9721 20.1909 99.219 20.8125 99.219H36.4375C36.84 99.2189 37.2356 99.115 37.5862 98.9173C37.9367 98.7196 38.2304 98.4348 38.4387 98.0905C39.7322 98.8311 41.197 99.2201 42.6875 99.219H73.9375C75.2038 99.2199 76.4469 98.8786 77.5352 98.2311C78.6235 97.5836 79.5165 96.6541 80.1199 95.5407C80.7233 94.4273 81.0146 93.1716 80.9629 91.9063C80.9112 90.641 80.5185 89.4132 79.8264 88.3528C80.0533 88.1757 80.2694 87.9853 80.4736 87.7825C81.6137 86.6429 82.327 85.1458 82.4936 83.5425C82.6603 81.9392 82.2702 80.3274 81.3889 78.9778C81.6158 78.8007 81.8319 78.6103 82.0361 78.4075C83.3066 77.1373 84.0421 75.4285 84.0911 73.6326C84.1402 71.8368 83.4991 70.0904 82.2998 68.7528C83.2053 67.7414 83.7987 66.4895 84.0082 65.1483C84.2178 63.807 84.0347 62.4338 83.4809 61.1944C82.9271 59.9549 82.0263 58.9023 80.8874 58.1636C79.7484 57.4249 78.42 57.0317 77.0625 57.0315ZM34.0938 94.5315H23.1562V61.719H34.0938V94.5315ZM75.5977 93.843C75.3801 94.0617 75.1214 94.2352 74.8364 94.3533C74.5515 94.4715 74.246 94.532 73.9375 94.5315H42.6875C41.6519 94.5303 40.659 94.1184 39.9267 93.3861C39.1944 92.6538 38.7824 91.6609 38.7812 90.6252V66.8948L47.2895 61.3385C47.5575 61.1615 47.7867 60.9319 47.9634 60.6637C48.14 60.3954 48.2604 60.0941 48.3172 59.778L52.4969 52.9874C52.7241 52.6176 52.8442 52.192 52.8438 51.7581V41.5823C57.1365 42.3125 57.5312 45.2184 57.5312 48.6331V59.3752C57.5312 59.9968 57.7782 60.593 58.2177 61.0325C58.6573 61.4721 59.2534 61.719 59.875 61.719H77.0625C77.6841 61.719 78.2802 61.9659 78.7198 62.4055C79.1593 62.845 79.4062 63.4411 79.4062 64.0627C79.4062 64.6843 79.1593 65.2805 78.7198 65.72C78.2802 66.1596 77.6841 66.4065 77.0625 66.4065H72.375C71.7534 66.4065 71.1573 66.6534 70.7177 67.093C70.2782 67.5325 70.0312 68.1286 70.0312 68.7502C70.0312 69.3718 70.2782 69.968 70.7177 70.4075C71.1573 70.8471 71.7534 71.094 72.375 71.094H77.0625C77.6841 71.094 78.2802 71.3409 78.7198 71.7805C79.1593 72.22 79.4062 72.8161 79.4062 73.4377C79.4062 74.0593 79.1593 74.6555 78.7198 75.095C78.2802 75.5346 77.6841 75.7815 77.0625 75.7815H72.375C71.7534 75.7815 71.1573 76.0284 70.7177 76.468C70.2782 76.9075 70.0312 77.5036 70.0312 78.1252C70.0312 78.7468 70.2782 79.343 70.7177 79.7825C71.1573 80.2221 71.7534 80.469 72.375 80.469H75.5C76.1216 80.469 76.7177 80.7159 77.1573 81.1555C77.5968 81.595 77.8438 82.1911 77.8438 82.8127C77.8438 83.4343 77.5968 84.0305 77.1573 84.47C76.7177 84.9096 76.1216 85.1565 75.5 85.1565H72.375C71.7534 85.1565 71.1573 85.4034 70.7177 85.843C70.2782 86.2825 70.0312 86.8786 70.0312 87.5002C70.0312 88.1218 70.2782 88.718 70.7177 89.1575C71.1573 89.5971 71.7534 89.844 72.375 89.844H73.9375C74.4009 89.8438 74.8539 89.981 75.2394 90.2382C75.6248 90.4954 75.9253 90.8611 76.103 91.2891C76.2807 91.7171 76.3275 92.1881 76.2375 92.6427C76.1476 93.0973 75.9249 93.515 75.5977 93.843Z" fill="white"/>
<path d="M28.625 93.1641C29.9194 93.1641 30.9688 92.1147 30.9688 90.8203C30.9688 89.5259 29.9194 88.4766 28.625 88.4766C27.3306 88.4766 26.2812 89.5259 26.2812 90.8203C26.2812 92.1147 27.3306 93.1641 28.625 93.1641Z" fill="white"/>
<path d="M41.0616 20.7855L39.6358 29.0963C39.5619 29.5273 39.61 29.9704 39.7748 30.3755C39.9396 30.7806 40.2145 31.1315 40.5683 31.3885C40.9221 31.6455 41.3408 31.7984 41.777 31.8299C42.2132 31.8614 42.6495 31.7703 43.0366 31.5668L50.5002 27.6431L57.9635 31.5668C59.5987 32.4978 61.7442 30.9418 61.3643 29.0963L59.9385 20.7855L65.9768 14.9C66.2899 14.5947 66.5114 14.2079 66.6162 13.7834C66.721 13.3588 66.705 12.9134 66.5698 12.4975C66.4347 12.0816 66.1859 11.7117 65.8516 11.4298C65.5172 11.148 65.1107 10.9652 64.678 10.9023L56.3336 9.68981L52.602 2.12906C52.4084 1.73688 52.109 1.40667 51.7376 1.17577C51.3662 0.944876 50.9376 0.82251 50.5002 0.82251C50.0629 0.82251 49.6343 0.944876 49.2628 1.17577C48.8914 1.40667 48.592 1.73688 48.3985 2.12906L44.6668 9.68981L36.3225 10.9023C35.8897 10.9652 35.4832 11.148 35.1489 11.4298C34.8145 11.7117 34.5657 12.0816 34.4306 12.4975C34.2955 12.9134 34.2794 13.3588 34.3842 13.7834C34.489 14.2079 34.7105 14.5947 35.0237 14.9L41.0616 20.7855ZM46.5602 14.1513C46.9362 14.0967 47.2933 13.9514 47.6007 13.7281C47.9081 13.5048 48.1567 13.21 48.3248 12.8693L50.5002 8.46148L52.6756 12.8693C52.8438 13.21 53.0923 13.5048 53.3997 13.7281C53.7071 13.9514 54.0642 14.0967 54.4403 14.1513L59.3035 14.8582L55.7846 18.289C55.5125 18.5543 55.309 18.8817 55.1916 19.243C55.0741 19.6044 55.0464 19.9889 55.1106 20.3634L55.9414 25.2072L51.5909 22.9203C51.2545 22.7435 50.8802 22.6511 50.5002 22.6511C50.1202 22.6511 49.7459 22.7435 49.4096 22.9203L45.059 25.2072L45.8899 20.3634C45.9541 19.9889 45.9263 19.6044 45.8089 19.243C45.6915 18.8817 45.4879 18.5543 45.2158 18.289L41.6961 14.8582L46.5602 14.1513Z" fill="#2DCBE0"/>
<path d="M98.7489 35.6235L92.003 30.5649L92.3457 22.1397C92.3636 21.7027 92.2587 21.2693 92.0431 20.8887C91.8274 20.5082 91.5096 20.1955 91.1255 19.9862C90.7414 19.7769 90.3064 19.6792 89.8697 19.7043C89.4329 19.7294 89.012 19.8761 88.6543 20.128L81.7594 24.9806L73.8526 22.0509C73.4425 21.899 72.9981 21.8648 72.5697 21.9523C72.1412 22.0398 71.7458 22.2453 71.4281 22.5458C71.1103 22.8463 70.883 23.2296 70.7718 23.6525C70.6606 24.0755 70.6699 24.5211 70.7987 24.939L73.2828 32.9968L68.0535 39.6114C67.7823 39.9545 67.6125 40.3666 67.5632 40.8011C67.514 41.2357 67.5873 41.6753 67.7749 42.0704C67.9625 42.4654 68.2569 42.8001 68.6248 43.0366C68.9927 43.273 69.4194 43.4019 69.8567 43.4085L78.2875 43.5356L82.9625 50.5532C83.9614 52.1573 86.5789 51.8112 87.1309 50.0116L89.8573 42.0325L97.9758 39.755C98.3969 39.6368 98.7765 39.4032 99.0717 39.0806C99.3669 38.758 99.566 38.3593 99.6464 37.9294C99.7269 37.4996 99.6854 37.0558 99.5268 36.6483C99.3682 36.2407 99.0987 35.8859 98.7489 35.6235ZM87.4047 37.8516C87.0388 37.9543 86.7034 38.1444 86.4273 38.4055C86.1513 38.6666 85.9428 38.9909 85.82 39.3505L84.2305 44.0022L81.5055 39.9116C81.2949 39.5953 81.0105 39.335 80.6769 39.1531C80.3433 38.9711 79.9704 38.8731 79.5905 38.8673L74.6758 38.7931L77.7242 34.9374C77.9599 34.6393 78.1195 34.2883 78.1894 33.9148C78.2592 33.5413 78.2372 33.1564 78.1252 32.7932L76.6772 28.0964L81.2866 29.8042C81.6429 29.9362 82.026 29.9796 82.4029 29.9306C82.7798 29.8816 83.1391 29.7417 83.4498 29.5229L87.4694 26.6942L87.2696 31.6054C87.2541 31.985 87.3312 32.3628 87.4943 32.706C87.6573 33.0492 87.9013 33.3477 88.2053 33.5757L92.1377 36.5249L87.4047 37.8516Z" fill="#2DCBE0"/>
<path d="M31.1433 43.4087C33.0273 43.4415 34.1624 41.0507 32.9464 39.6116L27.7171 32.997L30.2013 24.9391C30.3302 24.5212 30.3395 24.0756 30.2283 23.6527C30.1171 23.2297 29.8898 22.8463 29.5721 22.5458C29.2543 22.2453 28.8589 22.0397 28.4304 21.9523C28.0019 21.8648 27.5575 21.8989 27.1474 22.0509L19.2406 24.9806L12.346 20.128C11.9884 19.8761 11.5674 19.7294 11.1307 19.7043C10.694 19.6792 10.259 19.7769 9.87489 19.9862C9.49079 20.1955 9.17294 20.5082 8.95729 20.8887C8.74164 21.2693 8.6368 21.7027 8.65464 22.1397L8.99741 30.5649L2.25151 35.6235C1.90166 35.8859 1.63219 36.2409 1.47357 36.6484C1.31496 37.056 1.27352 37.4998 1.35394 37.9296C1.43437 38.3594 1.63345 38.7582 1.92868 39.0808C2.22391 39.4034 2.60351 39.637 3.02456 39.7552L11.1431 42.0327L13.8691 50.0118C14.421 51.8118 17.0388 52.1571 18.0374 50.5534L22.7124 43.5358L31.1433 43.4087ZM19.4943 39.9126L16.7695 44.0022L15.1802 39.3513C15.0574 38.9917 14.8489 38.6674 14.5728 38.4062C14.2968 38.1451 13.9613 37.9551 13.5955 37.8524L8.86284 36.5243L12.7953 33.5751C13.0993 33.3471 13.3433 33.0487 13.5063 32.7054C13.6693 32.3622 13.7464 31.9844 13.731 31.6048L13.5312 26.6936L17.5507 29.5231C17.8615 29.7419 18.2208 29.8818 18.5977 29.9308C18.9745 29.9798 19.3576 29.9364 19.714 29.8044L24.3234 28.0966L22.8748 32.7931C22.7628 33.1562 22.7407 33.5411 22.8106 33.9146C22.8805 34.2881 23.0401 34.6391 23.2757 34.9372L26.3242 38.7929L21.4095 38.8671C21.0295 38.8729 20.6566 38.971 20.323 39.1529C19.9893 39.3349 19.7049 39.5953 19.4943 39.9116V39.9126Z" fill="#2DCBE0"/>
</g>
<defs>
<clipPath id="clip0_80_861">
<rect width="100" height="100" fill="white" transform="translate(0.5 0.000244141)"/>
</clipPath>
</defs>
</svg>
